<svg width="24" height="24" viewBox="0 0 24 24" fill="none" xmlns="http://www.w3.org/2000/svg">
<path d="M5.06949 20.458C8.56107 15.9154 15.4393 15.9154 18.9309 20.458C19.0439 20.6055 19.0155 20.8164 18.8663 20.9299C18.7156 21.0442 18.5004 21.015 18.386 20.8666C15.1681 16.6802 8.83227 16.6801 5.61432 20.8666C5.49998 21.0152 5.28399 21.0445 5.13319 20.9299C4.98402 20.8163 4.95635 20.6054 5.06949 20.458ZM12.7717 3C13.2248 3.00002 13.6691 3.12722 14.0517 3.36808L15.2218 4.10587L15.3392 4.17316C15.4594 4.23619 15.587 4.28534 15.7189 4.31829L16.1816 4.43342C16.8267 4.59463 17.3749 5.01575 17.6945 5.59442L17.9049 5.97548L17.9686 6.09871C18.2666 6.7218 18.2782 7.4461 17.9954 8.08101L17.8722 8.35748C17.7318 8.67275 17.74 9.03416 17.8948 9.34255C18.1296 9.80961 18.1526 10.3545 17.9577 10.8392L17.6736 11.5454C17.6276 11.6596 17.594 11.7796 17.5738 11.9013L17.4632 12.5677C17.4189 12.8345 17.3264 13.0915 17.1891 13.325C16.7901 14.0033 16.0577 14.4219 15.2654 14.4219H15.1875C14.4231 15.4805 13.2818 16.1594 11.9998 16.1594C10.7172 16.1593 9.57552 15.4798 8.81123 14.4203C8.12451 14.412 7.4921 14.0476 7.14572 13.4588L7.06693 13.325C6.92966 13.0915 6.83707 12.8345 6.79284 12.5677L6.68219 11.9013C6.662 11.7796 6.62838 11.6596 6.58245 11.5454L6.31255 10.8741C6.10882 10.3669 6.13325 9.79712 6.37876 9.3085C6.52895 9.00946 6.55106 8.66214 6.44079 8.34613L6.19184 7.63266C5.93489 6.89635 6.05745 6.0804 6.52042 5.45092L6.57826 5.37227L6.70818 5.21093C7.02738 4.84816 7.4522 4.58909 7.92609 4.47071L8.53714 4.31829C8.71281 4.2744 8.88091 4.20237 9.03419 4.10587L10.2043 3.36808C10.5869 3.12721 11.0312 3.00004 11.4843 3H12.7717ZM11.9998 6.9873C10.161 6.98748 8.50026 8.78829 8.50026 11.2357C8.50035 13.6829 10.161 15.483 11.9998 15.4832C13.8386 15.4832 15.4992 13.6831 15.4993 11.2357C15.4993 8.78817 13.8386 6.9873 11.9998 6.9873ZM11.4843 3.67536C11.1617 3.6754 10.8453 3.76698 10.5723 3.93886L9.40217 4.67583C9.18737 4.81108 8.95153 4.91094 8.70478 4.97257L8.09289 5.1258C7.70742 5.22221 7.36689 5.44961 7.13147 5.76954L7.07364 5.84819C6.74209 6.29893 6.65379 6.88394 6.8381 7.41214L7.08705 8.1256C7.25698 8.61252 7.22231 9.14726 6.99065 9.60848C6.83138 9.92544 6.81639 10.2959 6.94874 10.6252L7.21864 11.2965C7.2828 11.4561 7.32884 11.6224 7.35695 11.7918L7.46759 12.4583C7.4984 12.6441 7.56326 12.8229 7.6587 12.9853L7.73749 13.1191C7.88142 13.3637 8.10101 13.5468 8.35609 13.6501C8.01395 12.9361 7.81715 12.1129 7.81712 11.2357C7.81712 8.53277 9.67435 6.31212 11.9998 6.31194C14.3253 6.31194 16.1832 8.53266 16.1832 11.2357C16.1832 12.1357 15.9738 12.9779 15.6149 13.7044C16.0223 13.6101 16.3803 13.3542 16.5973 12.9853C16.6928 12.8229 16.7576 12.6442 16.7884 12.4583L16.8991 11.7918C16.9272 11.6224 16.9732 11.4561 17.0374 11.2965L17.3224 10.5895C17.4455 10.283 17.4304 9.93847 17.2821 9.64334C17.037 9.15537 17.024 8.58371 17.2461 8.08507L17.3693 7.8086C17.5856 7.32301 17.5618 6.76435 17.3048 6.29897L17.0935 5.91791C16.8645 5.50355 16.4733 5.20331 16.0139 5.08851L15.5512 4.97257C15.3045 4.91094 15.0686 4.81109 14.8538 4.67583L13.6837 3.93886C13.4107 3.76698 13.0943 3.67538 12.7717 3.67536H11.4843Z" fill="#ADADAD"/>
</svg>
