<svg width="28" height="28" viewBox="0 0 28 28" fill="none" xmlns="http://www.w3.org/2000/svg">
<path d="M13.7033 8.76252C13.7033 8.59889 13.8364 8.46587 14 8.46587C14.1636 8.46587 14.2966 8.59889 14.2966 8.76252L14.2966 13.7033H19.2375C19.4011 13.7033 19.5341 13.8364 19.5341 14C19.5341 14.1636 19.4011 14.2967 19.2375 14.2967H14.2966L14.2966 19.2375C14.2966 19.4011 14.1636 19.5341 14 19.5341C13.8364 19.5341 13.7033 19.4011 13.7033 19.2375L13.7033 14.2967L8.76252 14.2967C8.59889 14.2967 8.46586 14.1636 8.46586 14C8.46586 13.8364 8.59889 13.7033 8.76252 13.7033L13.7033 13.7033L13.7033 8.76252Z" fill="#ADADAD"/>
</svg>
